<svg width="261" height="73" viewBox="0 0 261 73" fill="none" xmlns="http://www.w3.org/2000/svg">
<path d="M254.223 48.576C251.759 48.576 249.871 47.872 248.559 46.464C247.247 45.024 246.591 42.928 246.591 40.176V17.04H238.623V13.824H250.527V40.464C250.527 42.16 250.943 43.392 251.775 44.16C252.607 44.928 253.711 45.312 255.087 45.312C255.759 45.312 256.447 45.232 257.151 45.072C257.855 44.88 258.639 44.592 259.503 44.208L260.511 47.184C259.455 47.568 258.463 47.888 257.535 48.144C256.607 48.432 255.503 48.576 254.223 48.576Z" fill="white"/>
<path d="M208.737 47.9999V24.6719H211.905L212.241 27.7439H212.337C212.945 26.6559 213.649 25.7759 214.449 25.1039C215.249 24.4319 216.321 24.0959 217.665 24.0959C218.817 24.0959 219.761 24.4319 220.497 25.1039C221.233 25.7759 221.761 26.7839 222.081 28.1279C222.753 26.8799 223.489 25.9039 224.289 25.1999C225.121 24.4639 226.209 24.0959 227.553 24.0959C229.185 24.0959 230.449 24.7199 231.345 25.9679C232.273 27.1839 232.737 28.9599 232.737 31.2959V47.9999H228.801V31.5839C228.801 28.8639 227.969 27.5039 226.305 27.5039C225.505 27.5039 224.833 27.8079 224.289 28.4159C223.777 28.9919 223.201 29.8879 222.561 31.1039V47.9999H218.913V31.5839C218.913 30.2399 218.721 29.2319 218.337 28.5599C217.985 27.8559 217.377 27.5039 216.513 27.5039C215.713 27.5039 215.009 27.8079 214.401 28.4159C213.825 28.9919 213.249 29.8879 212.673 31.1039V47.9999H208.737Z" fill="white"/>
<path d="M196.084 48.576C193.812 48.576 192.02 48.176 190.708 47.376C189.396 46.544 188.452 45.408 187.876 43.968C187.332 42.528 187.06 40.848 187.06 38.928V27.888H180.484V24.912L187.204 24.672L187.732 17.184H190.996V24.672H202.468V27.888H190.996V38.976C190.996 40.352 191.172 41.52 191.524 42.48C191.876 43.44 192.484 44.16 193.348 44.64C194.212 45.12 195.396 45.36 196.9 45.36C198.02 45.36 199.028 45.264 199.924 45.072C200.82 44.88 201.684 44.624 202.516 44.304L203.38 47.184C202.324 47.568 201.204 47.888 200.02 48.144C198.868 48.432 197.556 48.576 196.084 48.576Z" fill="white"/>
<path d="M152.855 48V13.824H156.791V23.136L156.551 28.656H156.695C157.879 27.376 159.175 26.304 160.583 25.44C161.991 24.544 163.607 24.096 165.431 24.096C168.183 24.096 170.215 24.896 171.527 26.496C172.839 28.096 173.495 30.432 173.495 33.504V48H169.559V34.032C169.559 31.824 169.143 30.192 168.311 29.136C167.479 28.048 166.103 27.504 164.183 27.504C162.807 27.504 161.575 27.856 160.487 28.56C159.399 29.264 158.167 30.32 156.791 31.728V48H152.855Z" fill="white"/>
<path d="M137.01 48.576C135.954 48.576 135.042 48.208 134.274 47.472C133.506 46.704 133.122 45.728 133.122 44.544C133.122 43.328 133.506 42.352 134.274 41.616C135.042 40.848 135.954 40.464 137.01 40.464C138.098 40.464 139.01 40.848 139.746 41.616C140.514 42.352 140.898 43.328 140.898 44.544C140.898 45.728 140.514 46.704 139.746 47.472C139.01 48.208 138.098 48.576 137.01 48.576Z" fill="white"/>
<g filter="url(#filter0_d_31_430)">
<path d="M108.052 48V16.608H118.372C120.676 16.608 122.724 16.912 124.516 17.52C126.308 18.128 127.716 19.136 128.74 20.544C129.796 21.952 130.324 23.872 130.324 26.304C130.324 28.608 129.796 30.512 128.74 32.016C127.716 33.52 126.292 34.64 124.468 35.376C122.676 36.112 120.644 36.48 118.372 36.48H113.62V48H108.052ZM113.62 32.016H117.94C120.276 32.016 122.004 31.536 123.124 30.576C124.276 29.616 124.852 28.192 124.852 26.304C124.852 24.32 124.26 22.96 123.076 22.224C121.924 21.456 120.212 21.072 117.94 21.072H113.62V32.016Z" fill="#FFE100"/>
</g>
<g filter="url(#filter1_d_31_430)">
<path d="M92.039 48.576C90.087 48.576 88.247 48.224 86.519 47.52C84.823 46.816 83.319 45.776 82.007 44.4C80.727 43.024 79.719 41.328 78.983 39.312C78.279 37.296 77.927 34.992 77.927 32.4C77.927 28.976 78.551 26.048 79.799 23.616C81.079 21.152 82.807 19.28 84.983 18C87.191 16.688 89.671 16.032 92.423 16.032C94.375 16.032 96.119 16.432 97.655 17.232C99.191 18.032 100.439 18.944 101.399 19.968L98.327 23.424C97.559 22.624 96.695 22 95.735 21.552C94.775 21.104 93.671 20.88 92.423 20.88C90.695 20.88 89.159 21.344 87.815 22.272C86.503 23.168 85.479 24.464 84.743 26.16C84.007 27.856 83.639 29.888 83.639 32.256C83.639 34.624 84.007 36.672 84.743 38.4C85.479 40.128 86.519 41.456 87.863 42.384C89.207 43.28 90.775 43.728 92.567 43.728C93.879 43.728 95.047 43.456 96.071 42.912C97.095 42.336 98.055 41.568 98.951 40.608L102.023 44.016C100.775 45.488 99.319 46.624 97.655 47.424C95.991 48.192 94.119 48.576 92.039 48.576Z" fill="#FFE100"/>
</g>
<g filter="url(#filter2_d_31_430)">
<path d="M60.7618 48.576C58.5538 48.576 56.4418 48.176 54.4258 47.376C52.4098 46.576 50.6178 45.44 49.0498 43.968L52.3138 40.176C53.4978 41.232 54.8418 42.096 56.3458 42.768C57.8498 43.408 59.4338 43.728 61.0978 43.728C62.9218 43.728 64.3138 43.376 65.2738 42.672C66.2338 41.936 66.7138 41.024 66.7138 39.936C66.7138 39.008 66.4898 38.272 66.0418 37.728C65.5938 37.152 64.9698 36.672 64.1698 36.288C63.4018 35.904 62.4898 35.504 61.4338 35.088L57.1618 33.216C56.0738 32.768 55.0018 32.192 53.9458 31.488C52.9218 30.784 52.0738 29.888 51.4018 28.8C50.7618 27.712 50.4418 26.4 50.4418 24.864C50.4418 23.2 50.9058 21.712 51.8338 20.4C52.7618 19.056 54.0418 18 55.6738 17.232C57.3378 16.432 59.2258 16.032 61.3378 16.032C63.2578 16.032 65.0818 16.4 66.8098 17.136C68.5698 17.84 70.1058 18.8 71.4178 20.016L68.5378 23.568C67.4818 22.704 66.3618 22.048 65.1778 21.6C64.0258 21.12 62.6498 20.88 61.0498 20.88C59.5778 20.88 58.3778 21.2 57.4498 21.84C56.5218 22.48 56.0578 23.392 56.0578 24.576C56.0578 25.376 56.3138 26.032 56.8258 26.544C57.3378 27.056 57.9938 27.504 58.7938 27.888C59.6258 28.272 60.5058 28.64 61.4338 28.992L65.5618 30.768C66.9058 31.28 68.0898 31.904 69.1138 32.64C70.1378 33.376 70.9378 34.288 71.5138 35.376C72.0898 36.432 72.3778 37.728 72.3778 39.264C72.3778 40.96 71.9138 42.512 70.9858 43.92C70.0578 45.328 68.7298 46.464 67.0018 47.328C65.2738 48.16 63.1938 48.576 60.7618 48.576Z" fill="#FFE100"/>
</g>
<g filter="url(#filter3_d_31_430)">
<path d="M30.6365 48.576C28.9085 48.576 27.1485 48.176 25.3565 47.376C23.5645 46.576 22.0605 45.248 20.8445 43.392L24.1085 39.936C25.0365 41.184 26.0445 42.128 27.1325 42.768C28.2525 43.408 29.3725 43.728 30.4925 43.728C32.4125 43.728 33.8365 43.232 34.7645 42.24C35.6925 41.216 36.1565 39.52 36.1565 37.152V21.264H23.4365V16.608H41.7245V37.632C41.7245 39.648 41.3725 41.488 40.6685 43.152C39.9645 44.784 38.8125 46.096 37.2125 47.088C35.6125 48.08 33.4205 48.576 30.6365 48.576Z" fill="#FFE100"/>
</g>
<defs>
<filter id="filter0_d_31_430" x="88.0522" y="0.607971" width="62.272" height="71.392" filterUnits="userSpaceOnUse" color-interpolation-filters="sRGB">
<feFlood flood-opacity="0" result="BackgroundImageFix"/>
<feColorMatrix in="SourceAlpha" type="matrix" values="0 0 0 0 0 0 0 0 0 0 0 0 0 0 0 0 0 0 127 0" result="hardAlpha"/>
<feOffset dy="4"/>
<feGaussianBlur stdDeviation="10"/>
<feComposite in2="hardAlpha" operator="out"/>
<feColorMatrix type="matrix" values="0 0 0 0 1 0 0 0 0 0.883333 0 0 0 0 0 0 0 0 0.2 0"/>
<feBlend mode="normal" in2="BackgroundImageFix" result="effect1_dropShadow_31_430"/>
<feBlend mode="normal" in="SourceGraphic" in2="effect1_dropShadow_31_430" result="shape"/>
</filter>
<filter id="filter1_d_31_430" x="57.927" y="0.0319824" width="64.0959" height="72.544" filterUnits="userSpaceOnUse" color-interpolation-filters="sRGB">
<feFlood flood-opacity="0" result="BackgroundImageFix"/>
<feColorMatrix in="SourceAlpha" type="matrix" values="0 0 0 0 0 0 0 0 0 0 0 0 0 0 0 0 0 0 127 0" result="hardAlpha"/>
<feOffset dy="4"/>
<feGaussianBlur stdDeviation="10"/>
<feComposite in2="hardAlpha" operator="out"/>
<feColorMatrix type="matrix" values="0 0 0 0 1 0 0 0 0 0.883333 0 0 0 0 0 0 0 0 0.2 0"/>
<feBlend mode="normal" in2="BackgroundImageFix" result="effect1_dropShadow_31_430"/>
<feBlend mode="normal" in="SourceGraphic" in2="effect1_dropShadow_31_430" result="shape"/>
</filter>
<filter id="filter2_d_31_430" x="29.0498" y="0.0319824" width="63.3279" height="72.544" filterUnits="userSpaceOnUse" color-interpolation-filters="sRGB">
<feFlood flood-opacity="0" result="BackgroundImageFix"/>
<feColorMatrix in="SourceAlpha" type="matrix" values="0 0 0 0 0 0 0 0 0 0 0 0 0 0 0 0 0 0 127 0" result="hardAlpha"/>
<feOffset dy="4"/>
<feGaussianBlur stdDeviation="10"/>
<feComposite in2="hardAlpha" operator="out"/>
<feColorMatrix type="matrix" values="0 0 0 0 1 0 0 0 0 0.883333 0 0 0 0 0 0 0 0 0.2 0"/>
<feBlend mode="normal" in2="BackgroundImageFix" result="effect1_dropShadow_31_430"/>
<feBlend mode="normal" in="SourceGraphic" in2="effect1_dropShadow_31_430" result="shape"/>
</filter>
<filter id="filter3_d_31_430" x="0.844482" y="0.607971" width="60.8799" height="71.968" filterUnits="userSpaceOnUse" color-interpolation-filters="sRGB">
<feFlood flood-opacity="0" result="BackgroundImageFix"/>
<feColorMatrix in="SourceAlpha" type="matrix" values="0 0 0 0 0 0 0 0 0 0 0 0 0 0 0 0 0 0 127 0" result="hardAlpha"/>
<feOffset dy="4"/>
<feGaussianBlur stdDeviation="10"/>
<feComposite in2="hardAlpha" operator="out"/>
<feColorMatrix type="matrix" values="0 0 0 0 1 0 0 0 0 0.883333 0 0 0 0 0 0 0 0 0.2 0"/>
<feBlend mode="normal" in2="BackgroundImageFix" result="effect1_dropShadow_31_430"/>
<feBlend mode="normal" in="SourceGraphic" in2="effect1_dropShadow_31_430" result="shape"/>
</filter>
</defs>
</svg>
